<svg xmlns="http://www.w3.org/2000/svg" viewBox="0 0 80 80" fill="none"><rect width="80" height="80" rx="5" fill="#8257E6"></rect><g clip-path="url(#clip0)"><path d="M21.7148 59.781C21.7148 62.1072 23.6074 63.9997 25.9336 63.9997H58.2773C58.2773 61.8901 58.2773 18.6449 58.2773 15.9998H25.9336C23.6075 15.9998 21.715 17.8922 21.7148 20.2182V59.781ZM55.4648 61.1872H25.9336C25.1582 61.1872 24.5273 60.5564 24.5273 59.781V24.1954C24.9675 24.3515 25.4407 24.4373 25.9336 24.4373H55.4648V61.1872ZM25.9336 18.8123H55.4648V21.6248H25.9336C25.1582 21.6248 24.5273 20.9939 24.5273 20.2185C24.5273 19.4431 25.1582 18.8123 25.9336 18.8123Z" fill="white"></path><path d="M39.9961 55.7498L47.1999 45.8455C48.375 44.2297 48.9961 42.3057 48.9961 40.281C48.9961 35.1633 44.9587 30.9998 39.9961 30.9998C35.0335 30.9998 30.9961 35.1633 30.9961 40.281C30.9961 42.3055 31.6173 44.2296 32.7925 45.8455L39.9961 55.7498ZM39.9961 33.6516C43.5408 33.6516 46.4247 36.6255 46.4247 40.281C46.4247 41.7273 45.9814 43.1013 45.1428 44.2543L39.9961 51.3303L34.8495 44.2542C34.0108 43.1011 33.5675 41.7272 33.5675 40.281C33.5675 36.6255 36.4514 33.6516 39.9961 33.6516Z" fill="white"></path><ellipse cx="39.9961" cy="39.9998" rx="3" ry="3" fill="white"></ellipse></g><defs><clipPath id="clip0"><rect width="48" height="48" fill="white" transform="translate(15.9961 15.9998)"></rect></clipPath></defs></svg>