<svg xmlns="http://www.w3.org/2000/svg" viewBox="0 0 80 80" fill="none"><rect width="80" height="80" rx="5" fill="#FD951F"></rect><path d="M62.5 26.5H58C57.6013 26.4977 57.2181 26.6542 56.935 26.935L54.385 29.5H52V28C52 25.5147 49.9853 23.5 47.5 23.5H20.5C18.0147 23.5 16 25.5147 16 28V52C16 54.4853 18.0147 56.5 20.5 56.5H47.5C49.9853 56.5 52 54.4853 52 52V50.5H54.385L56.95 53.065C57.2294 53.3421 57.6065 53.4983 58 53.5H62.5C63.3285 53.5 64 52.8285 64 52V28C64 27.1715 63.3285 26.5 62.5 26.5ZM61 50.5H58.615L56.05 47.935C55.7706 47.6579 55.3935 47.5017 55 47.5H50.5C49.6715 47.5 49 48.1715 49 49V52C49 52.8285 48.3285 53.5 47.5 53.5H20.5C19.6715 53.5 19 52.8285 19 52V28C19 27.1715 19.6715 26.5 20.5 26.5H47.5C48.3285 26.5 49 27.1715 49 28V43H52V32.5H55C55.3987 32.5023 55.782 32.3458 56.065 32.065L58.615 29.5H61V50.5Z" fill="white"></path><path d="M32.5 34H29.5V37H32.5V34Z" fill="white"></path><path d="M38.5 34H35.5V37H38.5V34Z" fill="white"></path><path d="M38.5 43H29.5V41.5H26.5V43C26.5 44.6568 27.8432 46 29.5 46H38.5C40.1568 46 41.5 44.6568 41.5 43V41.5H38.5V43Z" fill="white"></path></svg>