<svg xmlns="http://www.w3.org/2000/svg" viewBox="0 0 228 69" fill="none"><path d="M26.0917 13.8075C39.2899 13.8075 50.0007 24.5184 50.0007 37.7165C50.0007 50.9146 39.2899 61.6255 26.0917 61.6255C12.8936 61.6255 2.1828 50.9146 2.1828 37.7165C2.1828 24.5184 12.9443 13.8075 26.0917 13.8075ZM26.0917 11.6755C11.6753 11.6755 0 23.3508 0 37.7673C0 52.1837 11.6753 63.859 26.0917 63.859C40.5082 63.859 52.1835 52.1837 52.1835 37.7673C52.1835 23.3508 40.5082 11.6755 26.0917 11.6755Z" fill="#4A357D"></path><path d="M46.7013 49.8994C42.5388 57.1584 34.6707 61.6762 26.1426 61.6762C17.5638 61.6762 9.74648 57.1584 5.58398 49.8994H46.7013Z" fill="url(#paint0_radial)"></path><path d="M32.031 17.7672V22.9449C31.5234 23.1987 29.3406 24.2139 26.1425 24.2139C22.9445 24.2139 20.7618 23.1987 20.2542 22.9449V17.7672C20.2542 14.0108 24.4166 5.33044 26.1425 5.33044C27.8177 5.33044 32.031 14.0108 32.031 17.7672Z" fill="white"></path><path d="M29.7467 14.3151C29.5437 14.112 28.4776 13.3506 26.0918 13.3506C23.706 13.3506 22.6908 14.112 22.437 14.3151C22.3862 14.3658 22.3862 14.3658 22.3862 14.4166V15.0765C22.3862 15.178 22.4877 15.2795 22.5892 15.178C22.9953 14.8734 24.0614 14.3658 26.0411 14.3658C28.0208 14.3658 29.0868 14.9242 29.4929 15.178C29.5944 15.2288 29.6959 15.178 29.6959 15.0765V14.4166C29.7974 14.3658 29.7975 14.3151 29.7467 14.3151Z" fill="#8257E5"></path><path d="M32.031 36.7014C32.031 36.7014 39.1377 42.3868 39.5438 50.4579C39.5438 50.9148 39.1377 51.2701 38.7316 51.1179C36.6503 50.4579 35.229 47.7168 32.031 47.7168V36.7014Z" fill="#8257E5"></path><path d="M20.203 36.7014C20.203 36.7014 13.0963 42.3868 12.6902 50.4579C12.6902 50.9148 13.0963 51.2701 13.5024 51.1179C15.5837 50.4579 17.005 47.7168 20.203 47.7168V36.7014Z" fill="#8257E5"></path><path d="M32.0308 26.2949C32.0308 34.823 32.0308 47.8181 32.0308 47.8181H20.2539C20.2539 47.8181 20.2539 34.8737 20.2539 26.2949C20.7615 26.5487 22.9443 27.564 26.1423 27.564C29.2895 27.564 31.4724 26.5487 32.0308 26.2949Z" fill="white"></path><path d="M26.0912 36.7014C25.4313 36.7014 24.6699 43.4528 24.6699 50.7625C24.6699 51.93 25.3806 53.0468 26.0912 53.0468C26.8019 53.0468 27.5126 51.8793 27.5126 50.7625C27.5633 43.5035 26.7511 36.7014 26.0912 36.7014Z" fill="#8257E5"></path><path d="M26.092 47.7673H20.2036L21.4727 50.5085C21.4727 50.5085 24.9752 50.8638 26.092 50.8638C27.2088 50.8638 30.7113 50.5085 30.7113 50.5085L31.9804 47.7673H26.092Z" fill="#8257E5"></path><path d="M26.3964 3.35042V1.7768H27.0563V0.00012207H10.0002V46.8028H11.1677V42.9449L13.7567 40.356L15.5333 42.1327L15.5841 42.1834L16.2439 41.219L14.5688 39.5438L16.2439 37.8687V39.5438H17.4115V1.7768H25.7872V3.35042C25.2289 3.50271 24.772 4.01033 24.772 4.61947C24.772 5.07633 24.975 5.43167 25.3304 5.68548C25.3811 5.73624 25.4827 5.787 25.5842 5.83776V6.80224H26.5994V5.83776C26.701 5.787 26.7517 5.73624 26.8532 5.68548C27.2086 5.43167 27.4116 5.07633 27.4116 4.61947C27.4116 4.01033 26.9548 3.50271 26.3964 3.35042ZM16.2439 1.7768L13.7567 4.26414L11.2693 1.7768H16.2439ZM16.2439 3.45195V6.80224L14.5688 5.1271L16.2439 3.45195ZM11.1677 3.35042L12.9444 5.1271L11.1677 6.90377V3.35042ZM11.1677 8.52816L13.7567 5.93929L16.2439 8.42663V8.62968L13.7567 11.117L11.1677 8.52816ZM16.2439 10.3048V13.6551L14.5688 11.98L16.2439 10.3048ZM11.1677 10.2033L12.9444 11.98L11.1677 13.7567V10.2033ZM11.1677 17.107L12.9444 18.8836L11.1677 20.6603V17.107ZM11.1677 23.9598L12.9444 25.7365L11.1677 27.5132V23.9598ZM11.1677 30.8635L12.9444 32.6402L11.1677 34.4168V30.8635ZM11.1677 41.2697V37.7164L12.9444 39.493L11.1677 41.2697ZM16.2439 36.1935L13.7567 38.6808L11.1677 36.092V36.0412L13.7567 33.4524L16.2439 35.9397V36.1935ZM16.2439 34.3153L14.5688 32.6402L16.2439 30.965V34.3153ZM16.2439 29.2899L13.7567 31.7772L11.1677 29.1883V29.1376L13.7567 26.5487L16.2439 29.0361V29.2899ZM16.2439 27.4624L14.5688 25.7873L16.2439 24.1121V27.4624ZM16.2439 22.437L13.7567 24.9243L11.1677 22.3355V22.2847L13.7567 19.6958L16.2439 22.1832V22.437ZM16.2439 20.5588L14.5688 18.8836L16.2439 17.2085V20.5588ZM16.2439 15.3303V15.5333L13.7567 18.0207L12.2845 16.5486L11.1677 15.4318V15.381L13.7567 12.7922L16.2439 15.3303Z" fill="url(#paint1_linear)"></path><path d="M85.4649 27.7166C87.9523 27.7166 90.0336 28.0211 91.7087 28.6303C93.3839 29.2394 94.7036 30.0516 95.7189 31.0669C96.7341 32.0821 97.4447 33.2496 97.8508 34.5694C98.2569 35.8893 98.46 37.3106 98.46 38.7319C98.46 40.204 98.2062 41.5746 97.7493 42.9452C97.2925 44.3158 96.5311 45.4833 95.5159 46.5493C94.5006 47.5645 93.1807 48.4275 91.5056 49.0366C89.8304 49.6458 87.8508 49.9504 85.4649 49.9504H72.7744V27.7166H85.4649ZM77.343 45.9909H85.3634C86.9878 45.9909 88.3583 45.7879 89.4751 45.3818C90.5411 44.9757 91.4041 44.4173 92.064 43.7574C92.7239 43.0467 93.1808 42.2853 93.4346 41.4223C93.6884 40.5594 93.8407 39.6456 93.8407 38.7319C93.8407 37.8182 93.6884 36.9045 93.4346 36.0415C93.1808 35.1786 92.7239 34.4679 92.064 33.7572C91.4041 33.0973 90.5411 32.5897 89.4751 32.1836C88.4091 31.7775 87.0386 31.6252 85.3634 31.6252H77.343V45.9909Z" fill="white"></path><path d="M106.734 25.3813V29.29H101.556V25.3813H106.734ZM101.912 32.8941H106.379V49.9502H101.912V32.8941Z" fill="white"></path><path d="M109.475 44.265H113.587C113.841 45.0264 114.348 45.6863 115.161 46.1432C115.973 46.6508 116.988 46.9046 118.257 46.9046C119.12 46.9046 119.78 46.8031 120.287 46.6508C120.744 46.4985 121.1 46.2447 121.303 45.9401C121.506 45.6355 121.557 45.2802 121.557 44.8741C121.557 44.4173 121.404 44.0112 121.1 43.7573C120.795 43.5035 120.338 43.3005 119.729 43.1482C119.12 42.9959 118.308 42.8436 117.343 42.6913C116.379 42.5391 115.465 42.336 114.551 42.133C113.638 41.9299 112.876 41.6253 112.166 41.2192C111.506 40.8639 110.947 40.3563 110.541 39.7979C110.135 39.2395 109.932 38.4781 109.932 37.6659C109.932 36.8537 110.135 36.0923 110.541 35.4831C110.947 34.8232 111.506 34.3156 112.216 33.8587C112.927 33.4019 113.79 33.0973 114.754 32.8435C115.719 32.6404 116.785 32.4882 117.902 32.4882C119.577 32.4882 120.998 32.742 122.115 33.2496C123.232 33.7572 124.095 34.4171 124.653 35.3308C125.211 36.1938 125.516 37.209 125.516 38.3766H121.557C121.353 37.5136 120.998 36.9045 120.44 36.5491C119.881 36.1938 119.069 35.9907 117.902 35.9907C116.785 35.9907 115.922 36.143 115.364 36.4984C114.805 36.8537 114.501 37.3106 114.501 37.9197C114.501 38.3766 114.653 38.7827 115.008 39.0365C115.364 39.2903 115.871 39.4933 116.582 39.6456C117.293 39.7979 118.156 40.0009 119.222 40.1532C120.135 40.3563 120.947 40.5593 121.76 40.7624C122.572 41.0162 123.283 41.27 123.942 41.6253C124.602 41.9807 125.11 42.4375 125.465 43.0467C125.821 43.6051 126.024 44.3665 126.024 45.2802C126.024 46.397 125.719 47.3107 125.059 48.0721C124.45 48.8336 123.536 49.3919 122.369 49.798C121.201 50.2041 119.831 50.4072 118.206 50.4072C116.785 50.4072 115.516 50.2549 114.501 49.9503C113.485 49.6458 112.622 49.2397 111.912 48.732C111.201 48.2244 110.694 47.7168 110.338 47.1584C109.983 46.6 109.729 46.0924 109.577 45.5848C109.475 44.9756 109.424 44.5695 109.475 44.265Z" fill="white"></path><path d="M149.019 43.1989C148.918 44.671 148.41 45.94 147.598 47.0568C146.786 48.1228 145.618 48.935 144.146 49.4934C142.674 50.0517 140.948 50.3563 138.918 50.3563C136.836 50.3563 134.958 50.001 133.283 49.3411C131.608 48.6812 130.339 47.6659 129.374 46.3461C128.41 45.0263 127.953 43.4019 127.953 41.4729C127.953 39.544 128.41 37.9196 129.374 36.549C130.339 35.2292 131.608 34.214 133.283 33.5541C134.958 32.8434 136.836 32.5388 138.918 32.5388C140.948 32.5388 142.674 32.8434 144.095 33.4018C145.517 33.9602 146.684 34.7724 147.496 35.8384C148.308 36.9044 148.816 38.1734 148.968 39.6455H144.907C144.501 38.5287 143.791 37.615 142.725 36.9551C141.659 36.2952 140.39 35.9906 138.918 35.9906C137.75 35.9906 136.633 36.1937 135.669 36.5998C134.704 37.0059 133.943 37.615 133.334 38.4272C132.775 39.2394 132.471 40.2547 132.471 41.4729C132.471 42.6912 132.775 43.7065 133.334 44.5187C133.892 45.3309 134.704 45.94 135.669 46.3461C136.633 46.7522 137.75 46.9553 138.918 46.9553C140.491 46.9553 141.811 46.6507 142.826 45.9908C143.841 45.3309 144.552 44.4172 144.907 43.2496H149.019V43.1989Z" fill="white"></path><path d="M161.659 50.3057C159.527 50.3057 157.598 49.9503 155.973 49.2904C154.349 48.5797 153.08 47.6153 152.166 46.2955C151.252 44.9756 150.796 43.3512 150.796 41.4223C150.796 39.4933 151.252 37.8689 152.166 36.5491C153.08 35.2293 154.349 34.2141 155.973 33.5034C157.598 32.7927 159.476 32.4882 161.659 32.4882C163.791 32.4882 165.669 32.8435 167.293 33.5034C168.918 34.2141 170.187 35.1786 171.1 36.5491C172.014 37.8689 172.471 39.4933 172.471 41.4223C172.471 43.3512 172.014 44.9756 171.1 46.2955C170.187 47.6153 168.918 48.6305 167.293 49.2904C165.669 49.9503 163.791 50.3057 161.659 50.3057ZM161.659 46.9046C162.826 46.9046 163.892 46.7015 164.857 46.2955C165.821 45.8894 166.532 45.2802 167.09 44.468C167.649 43.6558 167.902 42.6913 167.902 41.5238C167.902 40.3563 167.649 39.341 167.09 38.5289C166.532 37.7167 165.821 37.0567 164.857 36.6507C163.943 36.1938 162.826 35.9907 161.659 35.9907C160.491 35.9907 159.374 36.1938 158.461 36.6507C157.496 37.1075 156.735 37.7167 156.176 38.5289C155.618 39.341 155.313 40.3563 155.313 41.5238C155.313 42.6913 155.567 43.6558 156.126 44.468C156.684 45.2802 157.445 45.8894 158.41 46.2955C159.374 46.7015 160.44 46.9046 161.659 46.9046Z" fill="white"></path><path d="M183.74 47.0061H182.116L188.36 32.8943H193.233L185.06 49.8996H180.847L172.826 32.8435H177.75L183.74 47.0061Z" fill="white"></path><path d="M209.882 44.265H214.197C213.994 45.4325 213.537 46.4477 212.725 47.3615C211.913 48.2752 210.847 48.9858 209.527 49.5442C208.157 50.0518 206.532 50.3564 204.603 50.3564C202.421 50.3564 200.492 50.0011 198.867 49.2904C197.192 48.5797 195.872 47.5645 194.958 46.2447C194.045 44.9249 193.537 43.3005 193.537 41.4223C193.537 39.5441 193.994 37.9197 194.908 36.5999C195.821 35.2801 197.09 34.2648 198.715 33.5542C200.339 32.8435 202.268 32.4882 204.451 32.4882C206.684 32.4882 208.563 32.8435 210.035 33.5542C211.507 34.2648 212.624 35.3308 213.334 36.7522C214.045 38.1735 214.35 40.0009 214.248 42.2345H198.004C198.106 43.0974 198.461 43.9096 198.969 44.6203C199.527 45.331 200.238 45.8894 201.151 46.2955C202.065 46.7015 203.182 46.9046 204.451 46.9046C205.872 46.9046 207.04 46.6508 208.004 46.1432C209.02 45.6355 209.629 45.0264 209.882 44.265ZM204.299 35.8892C202.674 35.8892 201.304 36.2446 200.288 36.9552C199.273 37.6659 198.613 38.5796 198.309 39.5949H209.882C209.781 38.4781 209.223 37.5644 208.258 36.8537C207.294 36.2446 205.974 35.8892 204.299 35.8892Z" fill="white"></path><path d="M216.938 32.8942H221.406V49.9502H216.938V32.8942ZM227.954 36.549C226.685 36.549 225.568 36.8028 224.654 37.3105C223.741 37.8181 222.979 38.3765 222.37 39.0871C221.812 39.7978 221.406 40.4577 221.152 41.1684L221.101 39.2902C221.101 39.0364 221.202 38.6303 221.355 38.0719C221.507 37.5135 221.761 36.9551 222.065 36.346C222.37 35.7368 222.827 35.1277 223.334 34.5185C223.842 33.9602 224.502 33.4525 225.263 33.0972C226.025 32.7419 226.888 32.5388 227.903 32.5388V36.549H227.954Z" fill="white"></path><path d="M25.9129 68.6553C29.6017 68.6553 32.592 65.665 32.592 61.9763C32.592 58.2876 29.6017 55.2972 25.9129 55.2972C22.2242 55.2972 19.2339 58.2876 19.2339 61.9763C19.2339 65.665 22.2242 68.6553 25.9129 68.6553Z" fill="#8257E5"></path><path d="M28.5409 58.697L27.6728 58.5764C27.6487 58.5764 27.6246 58.5764 27.6005 58.6005L27.2388 59.0828C27.2147 59.1069 27.2147 59.1551 27.2147 59.1792C27.2147 59.2033 27.1906 59.2516 27.1665 59.2274L26.853 59.1551C26.8048 59.1551 26.7566 59.1551 26.7325 59.2033L25.5268 60.7465C25.5027 60.7706 25.4545 60.7947 25.4304 60.7706L24.9723 60.5536C24.924 60.5295 24.8758 60.5295 24.8517 60.5536L24.6106 60.7224C24.5624 60.7465 24.5141 60.7465 24.49 60.7224L24.3695 60.6742C24.2971 60.6259 24.2007 60.6742 24.2007 60.7465L24.1283 61.1082C24.1042 61.2046 24.1525 61.277 24.2248 61.3252L24.3936 61.4216L24.9482 61.7592L25.2134 61.928C25.2857 61.9762 25.3822 61.9762 25.4545 61.9039L25.9126 61.494C25.9609 61.4699 26.0091 61.4458 26.0573 61.4699L26.202 61.5422C26.2502 61.5663 26.2984 61.5663 26.3467 61.5181L26.5878 61.3011C26.636 61.277 26.6842 61.2529 26.7325 61.277L27.07 61.4458C27.1182 61.4699 27.1906 61.4458 27.2147 61.3975L27.3835 61.2046L28.5891 59.6615C28.6373 59.5891 28.6132 59.4927 28.5167 59.4686L28.2515 59.4203C28.2033 59.3962 28.1792 59.348 28.2033 59.2998L28.6132 58.7934C28.6373 58.7693 28.6132 58.697 28.5409 58.697Z" fill="white"></path><path d="M24.5624 61.8074C24.5383 61.7832 24.5142 61.8074 24.5142 61.8315L24.6347 62.169C24.6347 62.1931 24.6347 62.2173 24.6347 62.2414L24.5142 62.6754C24.5142 62.6995 24.5142 62.7236 24.5383 62.7477L24.8517 62.9888C24.8758 63.013 24.9241 63.013 24.9482 62.9888L25.2857 62.6995C25.3099 62.6754 25.334 62.6754 25.3581 62.6754L25.7439 62.6272C25.768 62.6272 25.768 62.5789 25.768 62.5789L24.5624 61.8074Z" fill="white"></path><path d="M24.442 62.9407C24.4179 62.9166 24.3938 62.9166 24.3697 62.9407L24.1044 63.0613C24.0803 63.0613 24.0803 63.0854 24.0803 63.1095L23.5016 64.5321C23.5016 64.5321 23.5016 64.5321 23.5257 64.5321L23.6463 64.4839C23.6463 64.4839 23.6463 64.4839 23.6704 64.4839V64.508L23.2605 65.1831C23.2605 65.2072 23.2605 65.2072 23.2846 65.2072L24.7796 63.6882C24.8037 63.664 24.8037 63.6641 24.8037 63.6399L24.8278 63.2541C24.8278 63.23 24.8278 63.2059 24.8037 63.1818L24.442 62.9407Z" fill="white"></path><defs><radialGradient id="paint0_radial" cx="0" cy="0" r="1" gradientUnits="userSpaceOnUse" gradientTransform="translate(26.1154 50.007) scale(34.7389 19.7741)"><stop stop-color="#6042A6"></stop><stop offset="0.493664" stop-color="#6042A6" stop-opacity="0"></stop></radialGradient><linearGradient id="paint1_linear" x1="18.7007" y1="17.9424" x2="18.7007" y2="46.6286" gradientUnits="userSpaceOnUse"><stop stop-color="#714DC6"></stop><stop offset="0.677" stop-color="#714DC6" stop-opacity="0"></stop></linearGradient></defs></svg>