<svg xmlns="http://www.w3.org/2000/svg" viewBox="0 0 80 80" fill="currentColor"><rect width="80" height="80" rx="5" fill="currentColor"></rect><path d="M37.5287 54.2596L37.5303 54.2556L40 48.2967L42.468 54.2514C42.4682 54.2521 42.4685 54.2527 42.4688 54.2533C43.0956 55.7757 44.8486 56.4889 46.3558 55.8695C47.8701 55.2472 48.6052 53.4964 47.9716 51.9762C47.9713 51.9753 47.9709 51.9745 47.9706 51.9736L43.8923 42.1298V38.8243L50.3771 37.9126C50.3776 37.9125 50.3781 37.9124 50.3786 37.9124C50.3786 37.9124 50.3786 37.9123 50.3787 37.9123C52.1155 37.669 52.8418 35.9336 52.6628 34.5956L52.6628 34.5956L52.6615 34.5863C52.4724 33.2368 51.291 31.7732 49.557 32.0151L49.5551 32.0154L42.1486 33.0583H37.8617L30.4551 32.0154L30.4533 32.0151C28.7193 31.7732 27.5378 33.2368 27.3487 34.5863C27.1616 35.9218 27.876 37.6678 29.6213 37.9123C29.6214 37.9124 29.6216 37.9124 29.6217 37.9124C29.6221 37.9124 29.6225 37.9125 29.6229 37.9126L36.1077 38.8243V42.1298L32.0277 51.9777L32.0261 51.9817C31.4064 53.4895 32.1205 55.2434 33.6442 55.8695C35.1582 56.4917 36.898 55.7689 37.5287 54.2596ZM17.5 40C17.5 27.5938 27.5938 17.5 40 17.5C52.4062 17.5 62.5 27.5938 62.5 40C62.5 52.4062 52.4062 62.5 40 62.5C27.5938 62.5 17.5 52.4062 17.5 40ZM44.1798 27.9615C44.1798 25.6546 42.3069 23.7817 40 23.7817C37.6931 23.7817 35.8202 25.6546 35.8202 27.9615C35.8202 30.2684 37.6931 32.1413 40 32.1413C42.3069 32.1413 44.1798 30.2684 44.1798 27.9615Z" stroke="white" stroke-width="3"></path></svg>