<svg xmlns="http://www.w3.org/2000/svg" viewBox="0 0 80 80" fill="none"><rect width="80" height="80" rx="4.16667" fill="#FD951F"></rect><g clip-path="url(#clip0)"><path d="M21.7158 59.781C21.7158 62.1072 23.6084 63.9997 25.9346 63.9997H58.2783C58.2783 61.8901 58.2783 18.6449 58.2783 15.9998H25.9346C23.6084 15.9998 21.716 17.8922 21.7158 20.2182V59.781ZM55.4658 61.1872H25.9346C25.1592 61.1872 24.5283 60.5564 24.5283 59.781V24.1954C24.9685 24.3515 25.4416 24.4373 25.9346 24.4373H55.4658V61.1872ZM25.9346 18.8123H55.4658V21.6248H25.9346C25.1592 21.6248 24.5283 20.9939 24.5283 20.2185C24.5283 19.4431 25.1592 18.8123 25.9346 18.8123Z" fill="white"></path><path fill-rule="evenodd" clip-rule="evenodd" d="M30.8969 52.0048L29.4062 31H50.6124L49.1218 52.0048L40.0093 55L30.8969 52.0048ZM36.2129 37.375H46.6332L46.8301 34.5625H33.1894L33.8364 43.7031H43.3566L43.1035 47.3359L40.0098 48.3624L36.916 47.3359L36.8598 46.5625H34.0473L34.2441 49.403L40.0098 51.3297L45.7754 49.403L46.3802 40.8906H36.4659L36.2129 37.375Z" fill="white"></path></g><defs><clipPath id="clip0"><rect width="48" height="48" fill="white" transform="translate(15.9961 15.9998)"></rect></clipPath></defs></svg>