<svg xmlns="http://www.w3.org/2000/svg" viewBox="0 0 80 80" fill="none"><rect width="80" height="80" rx="5" fill="#FD951F"></rect><g clip-path="url(#clip0)"><path d="M63.9399 19.5833C63.8359 17.6766 62.3195 16.1604 60.4128 16.0563C56.5655 15.8461 49.037 16.0506 41.8381 19.7741C38.1683 21.6723 34.287 24.8907 31.1896 28.6039C31.1515 28.6497 31.1143 28.6957 31.0765 28.7415L24.0471 29.2845C22.89 29.374 21.8594 29.9805 21.2195 30.9483L16.4238 38.2019C15.9385 38.936 15.8613 39.8547 16.2173 40.6593C16.5733 41.4641 17.305 42.0249 18.1745 42.1596L24.0968 43.0769C24.0759 43.192 24.0549 43.307 24.0356 43.4221C23.8385 44.6015 24.2292 45.8141 25.0811 46.6658L33.3303 54.9151C34.0365 55.6213 34.9908 56.0107 35.9686 56.0107C36.17 56.0107 36.3725 55.9941 36.5741 55.9604C36.6892 55.9412 36.8042 55.9202 36.9193 55.8993L37.8366 61.8217C37.9713 62.6912 38.5321 63.4229 39.3367 63.7789C39.6715 63.927 40.0257 64.0002 40.3784 64.0002C40.8737 64.0001 41.3655 63.8559 41.7941 63.5725L49.0478 58.7767C50.0157 58.1367 50.6221 57.1061 50.7114 55.9491L51.2544 48.9198C51.3002 48.8819 51.3463 48.8448 51.3921 48.8067C55.1054 45.7093 58.3239 41.828 60.222 38.1581C63.9457 30.9589 64.1498 23.4303 63.9399 19.5833ZM47.4967 56.4305L40.5581 61.018L39.6641 55.2463C42.5966 54.384 45.4976 53.0031 48.2612 51.1531L47.9075 55.7323C47.8855 56.018 47.7356 56.2725 47.4967 56.4305ZM35.319 52.9264L27.0697 44.6771C26.8592 44.4665 26.7619 44.1707 26.8096 43.8858C27.0549 42.4193 27.436 41.0233 27.9077 39.7081L40.2853 52.0858C38.7058 52.6515 37.291 52.989 36.1103 53.1865C35.8249 53.2339 35.5295 53.1369 35.319 52.9264ZM24.2637 32.0887L28.8429 31.735C26.9928 34.4986 25.6119 37.3995 24.7496 40.332L18.978 39.4381L23.5656 32.4995C23.7236 32.2604 23.9782 32.1107 24.2637 32.0887ZM49.5908 46.6468C47.3189 48.5417 45.1136 49.9123 43.081 50.9041L29.0915 36.9147C30.3907 34.2612 31.9763 32.0516 33.3493 30.4055C36.2157 26.9691 39.7808 24.0046 43.1304 22.2721C49.7373 18.8547 56.6983 18.6706 60.2597 18.8645C60.7311 18.8902 61.106 19.2651 61.1317 19.7366C61.3258 23.298 61.1414 30.2589 57.724 36.8659C55.9915 40.2154 53.0271 43.7803 49.5908 46.6468Z" fill="white"></path><path d="M48.8758 38.1475C50.676 38.1473 52.4769 37.462 53.8474 36.0914C55.1755 34.7635 55.9067 32.9978 55.9067 31.1198C55.9067 29.2418 55.1754 27.4761 53.8474 26.1481C51.106 23.4066 46.6454 23.4068 43.9041 26.1481C42.5761 27.4761 41.8447 29.2418 41.8447 31.1198C41.8447 32.9978 42.5762 34.7635 43.9041 36.0914C45.2749 37.4622 47.0749 38.1476 48.8758 38.1475ZM45.8927 28.1367C46.715 27.3143 47.7953 26.9031 48.8756 26.9031C49.956 26.9031 51.0362 27.3143 51.8586 28.1367C52.6554 28.9335 53.0942 29.9929 53.0942 31.1197C53.0942 32.2465 52.6554 33.3059 51.8586 34.1027C50.2139 35.7476 47.5374 35.7475 45.8926 34.1027C45.0958 33.3059 44.6569 32.2466 44.6569 31.1198C44.6569 29.993 45.0959 28.9335 45.8927 28.1367Z" fill="white"></path><path d="M17.4306 55.5566C17.7905 55.5566 18.1504 55.4193 18.4249 55.1446L23.0161 50.5534C23.5653 50.0043 23.5653 49.1139 23.0161 48.5647C22.4671 48.0155 21.5766 48.0155 21.0274 48.5647L16.4363 53.1559C15.8871 53.7051 15.8871 54.5955 16.4363 55.1446C16.7108 55.4192 17.0707 55.5566 17.4306 55.5566Z" fill="white"></path><path d="M27.2246 52.7722C26.6755 52.2231 25.7851 52.2231 25.2359 52.7722L16.409 61.5993C15.8598 62.1485 15.8598 63.0388 16.409 63.588C16.6836 63.8626 17.0434 63.9999 17.4033 63.9999C17.7632 63.9999 18.1231 63.8626 18.3976 63.5879L27.2245 54.761C27.7738 54.2118 27.7738 53.3214 27.2246 52.7722Z" fill="white"></path><path d="M29.4426 56.9798L24.8513 61.571C24.3022 62.1202 24.3022 63.0105 24.8513 63.5597C25.1259 63.8343 25.4858 63.9716 25.8457 63.9716C26.2055 63.9716 26.5655 63.8344 26.84 63.5597L31.4312 58.9685C31.9804 58.4193 31.9804 57.5289 31.4312 56.9798C30.8821 56.4306 29.9917 56.4306 29.4426 56.9798Z" fill="white"></path></g><defs><clipPath id="clip0"><rect width="48" height="48" fill="white" transform="translate(15.9961 15.9998)"></rect></clipPath></defs></svg>