<svg xmlns="http://www.w3.org/2000/svg" viewBox="0 0 80 80" fill="none"><rect width="80" height="80" rx="5" fill="#E83F5B"></rect><path d="M42.1596 16.2854C40.7435 15.0158 38.6076 15.0159 37.1915 16.2855C34.3338 18.8471 29.1756 24.2933 26.7279 31.9858C25.4802 35.9074 25.0134 40.9075 25.4471 45.7043C25.4524 45.7633 25.4587 45.8219 25.4643 45.8808L20.896 51.214C20.1441 52.0919 19.8454 53.2449 20.0764 54.3772L21.8075 62.8634C21.9826 63.7223 22.5753 64.4236 23.3927 64.7396C24.2102 65.0556 25.1205 64.9353 25.8277 64.4178L30.6448 60.8928C30.7111 60.9887 30.7774 61.0844 30.8449 61.1791C31.5367 62.1485 32.6659 62.7273 33.8657 62.7273L45.4855 62.7273C46.4803 62.7273 47.4265 62.3295 48.1152 61.6408C48.257 61.4989 48.388 61.3446 48.5062 61.179C48.5738 61.0843 48.6399 60.9886 48.7064 60.8927L53.5234 64.4178C54.2307 64.9353 55.141 65.0557 55.9584 64.7398C56.2985 64.6083 56.5995 64.4103 56.8479 64.1619C57.1967 63.813 57.4415 63.365 57.5437 62.8636L59.2748 54.3773C59.5058 53.2448 59.207 52.0919 58.455 51.2142L53.8867 45.8811C53.8923 45.8221 53.8987 45.7636 53.9041 45.7045C54.3379 40.9077 53.871 35.9075 52.6232 31.9859C50.1754 24.2931 45.0169 18.847 42.1596 16.2854ZM56.53 53.8173L54.8741 61.935L50.1795 58.4997C51.6376 55.8271 52.7081 52.8114 53.3516 49.562L56.3276 53.0363C56.5132 53.253 56.587 53.5378 56.53 53.8173ZM45.4855 59.926H33.8656C33.569 59.926 33.2922 59.7862 33.1252 59.5519C32.2651 58.3463 31.5502 57.0947 30.9562 55.8363H48.3911C47.6772 57.3471 46.9185 58.5813 46.2259 59.5519C46.0583 59.7863 45.7819 59.926 45.4855 59.926ZM23.0235 53.0363L25.9994 49.5622C26.6429 52.8116 27.7134 55.8272 29.1715 58.4998L24.477 61.9352L22.8212 53.8174C22.7641 53.5377 22.8379 53.253 23.0235 53.0363ZM51.1142 45.4519C50.8488 48.3866 50.261 50.905 49.5278 53.0351H29.8225C28.8687 50.2512 28.4292 47.5784 28.2369 45.452C27.8355 41.013 28.2585 36.4143 29.3974 32.8351C31.6437 25.775 36.4167 20.7428 39.0614 18.3711C39.4116 18.0572 39.9396 18.0572 40.2898 18.3712C42.9348 20.7427 47.7074 25.7751 49.9538 32.8352C51.0927 36.4143 51.5156 41.0129 51.1142 45.4519Z" fill="white"></path><path d="M44.6214 39.9693C45.8891 38.7014 46.6749 36.9504 46.6749 35.0199C46.6749 33.1492 45.9464 31.3907 44.6238 30.068C43.3011 28.7453 41.5425 28.0168 39.6719 28.0168C35.8103 28.0168 32.6689 31.1585 32.6689 35.0199C32.6689 36.8905 33.3974 38.6491 34.72 39.9717C36.0427 41.2944 37.8014 42.0228 39.6719 42.0228C41.6028 42.0228 43.3532 41.2378 44.6214 39.9693ZM35.47 35.0199C35.4699 33.8615 35.9412 32.811 36.702 32.0502C37.4629 31.2893 38.5133 30.8181 39.6717 30.8181C40.7941 30.8181 41.8492 31.2552 42.6428 32.0488C43.4364 32.8424 43.8735 33.8976 43.8735 35.0199C43.8736 37.3367 41.9885 39.2217 39.6717 39.2217C38.5494 39.2217 37.4942 38.7847 36.7006 37.9911C35.907 37.1976 35.47 36.1422 35.47 35.0199Z" fill="white"></path></svg>