<svg xmlns="http://www.w3.org/2000/svg" viewBox="0 0 80 80" fill="none"><rect width="80" height="80" rx="5" fill="#04D361"></rect><g clip-path="url(#clip0)"><path d="M58.1357 36.2985L61.0152 33.4158C64.9897 29.4369 64.9897 22.9628 61.0152 18.9839C57.0407 15.0051 50.5737 15.0051 46.5992 18.9839L43.7197 21.8666L32.0011 17.0653C30.2642 16.3539 28.2726 17.1895 27.5616 18.9286C27.0406 20.2032 27.3325 21.656 28.3053 22.6298C28.6254 22.9501 29.0012 23.2001 29.4227 23.373L38.5003 27.0921L35.7249 29.8705L34.457 28.6011C33.6006 27.7438 32.4623 27.2718 31.2514 27.2718C30.0405 27.2718 28.902 27.7439 28.0458 28.6011C27.1068 29.5413 25.579 29.5413 24.64 28.6011L23.2924 27.252C21.5247 25.4825 18.6487 25.4826 16.8811 27.252L16.3073 27.895C15.8924 28.3104 15.8924 28.9839 16.3073 29.3994C16.7222 29.8149 17.395 29.8148 17.81 29.3994L18.3838 28.7563C19.3229 27.8164 20.8507 27.8164 21.7897 28.7563L23.1373 30.1055C24.905 31.875 27.781 31.875 29.5486 30.1055C30.0034 29.6501 30.6082 29.3994 31.2514 29.3994C31.8946 29.3994 32.4995 29.6501 32.9543 30.1056L34.2223 31.375L17.2967 48.3192C15.7142 49.9034 15.6583 52.4945 17.1719 54.0952C17.9415 54.909 18.981 55.3658 20.0988 55.3811C21.2165 55.3977 22.2682 54.9691 23.059 54.1775L31.9995 45.227C32.7758 44.45 34.0345 44.4121 34.8054 45.1428C35.1981 45.515 35.4186 46.0172 35.426 46.5571C35.4334 47.0973 35.2274 47.6051 34.8459 47.987L25.9054 56.9375C24.3229 58.5217 24.267 61.1128 25.7807 62.7135C26.5503 63.5273 27.5897 63.9841 28.7076 63.9994C28.7271 63.9996 28.7463 63.9997 28.7658 63.9997C29.8623 63.9997 30.8909 63.5735 31.6678 62.7958L40.0142 54.44C40.4291 54.0247 40.4291 53.3511 40.0142 52.9357C39.5993 52.5204 38.9265 52.5204 38.5115 52.9357L30.1652 61.2915C29.7836 61.6734 29.2744 61.8791 28.7368 61.8722C28.1976 61.8648 27.6959 61.6442 27.3241 61.251C26.5942 60.4792 26.6319 59.2189 27.4082 58.4418L36.3487 49.4913C37.1393 48.6998 37.5664 47.6474 37.551 46.528C37.5356 45.4088 37.0795 44.3682 36.2665 43.5977C34.6675 42.0823 32.0792 42.1384 30.4968 43.7227L21.5563 52.6731C21.1747 53.055 20.6655 53.2575 20.128 53.2538C19.5887 53.2463 19.087 53.0257 18.7152 52.6326C17.9854 51.8608 18.023 50.6004 18.7993 49.8234L41.1326 27.4653C41.3841 27.2135 41.4931 26.8525 41.4228 26.5033C41.3526 26.1542 41.1128 25.8634 40.7836 25.7286L30.2278 21.4039C30.0688 21.3387 29.9276 21.245 29.8081 21.1252C29.4424 20.7591 29.3326 20.2131 29.5284 19.7341C29.7955 19.0808 30.5436 18.7669 31.1962 19.034L43.0133 23.8755C43.2507 23.9729 43.4631 24.1142 43.6445 24.2958L55.7087 36.3734C55.8902 36.5549 56.0314 36.7676 56.1286 37.0053L60.9648 48.8356C61.2319 49.4889 60.9182 50.2379 60.2656 50.5053C59.7871 50.7014 59.2416 50.5915 58.8759 50.2253C58.7564 50.1056 58.6627 49.9643 58.5976 49.8054L54.2776 39.2376C54.1429 38.908 53.8525 38.6679 53.5038 38.5977C53.1554 38.5274 52.7946 38.6366 52.543 38.8882L37.551 53.8974C37.136 54.3128 37.136 54.9863 37.551 55.4017C37.966 55.8172 38.6388 55.8172 39.0536 55.4017L52.9159 41.5234L56.6311 50.6111C56.8037 51.0329 57.0534 51.4091 57.3733 51.7295C58.3456 52.7038 59.7968 52.9962 61.0702 52.4745C62.8072 51.7628 63.6422 49.769 62.9313 48.03L58.1357 36.2985ZM51.5584 29.2101H57.1397C57.7266 29.2101 58.2023 28.7338 58.2023 28.1463C58.2023 27.5588 57.7266 27.0825 57.1397 27.0825H49.4333L45.474 23.1189L48.1018 20.4883C51.2475 17.3389 56.3664 17.3389 59.5123 20.4883C59.9357 20.9121 60.3042 21.3759 60.6185 21.8692H55.3094C54.7226 21.8692 54.2468 22.3454 54.2468 22.933C54.2468 23.5205 54.7226 23.9967 55.3094 23.9967H61.5711C61.7704 24.7047 61.8756 25.444 61.8756 26.1999C61.8756 28.3575 61.0363 30.3859 59.5123 31.9114L56.8846 34.5422L51.5584 29.2101Z" fill="white"></path><path d="M49.0608 35.1567L45.1221 31.2181C44.2533 30.3494 42.8399 30.3495 41.9711 31.2181L36.8019 36.3873C35.9332 37.2561 35.9332 38.6697 36.8019 39.5385L40.7405 43.477C41.175 43.9114 41.7455 44.1285 42.316 44.1285C42.8865 44.1285 43.4573 43.9112 43.8917 43.477L49.0608 38.3079C49.9295 37.4391 49.9295 36.0255 49.0608 35.1567ZM47.567 36.8139L42.3978 41.9831C42.3529 42.0283 42.2794 42.0282 42.2345 41.9831L38.2959 38.0445C38.2509 37.9995 38.2509 37.9262 38.2959 37.8812L43.4651 32.7121C43.4876 32.6895 43.5172 32.6783 43.5467 32.6783C43.5762 32.6783 43.6059 32.6895 43.6283 32.7121L47.5669 36.6506C47.612 36.6956 47.612 36.769 47.567 36.8139Z" fill="white"></path><path d="M44.8354 35.4428C44.639 35.2463 44.3664 35.1333 44.0886 35.1333C43.8107 35.1333 43.5383 35.2463 43.3417 35.4428C43.1453 35.6393 43.0322 35.9118 43.0322 36.1897C43.0322 36.4686 43.1453 36.74 43.3417 36.9376C43.5382 37.134 43.8107 37.246 44.0886 37.246C44.3664 37.246 44.6389 37.134 44.8354 36.9376C45.033 36.7401 45.1449 36.4686 45.1449 36.1897C45.1448 35.9118 45.033 35.6393 44.8354 35.4428Z" fill="white"></path><path d="M42.4593 37.8217C42.2629 37.6253 41.9903 37.5122 41.7125 37.5122C41.4336 37.5122 41.1611 37.6253 40.9647 37.8217C40.7682 38.0182 40.6562 38.2907 40.6562 38.5686C40.6562 38.8464 40.7682 39.1189 40.9647 39.3154C41.1611 39.5119 41.4337 39.6249 41.7125 39.6249C41.9903 39.6249 42.2617 39.5119 42.4593 39.3154C42.6558 39.119 42.7688 38.8464 42.7688 38.5686C42.7688 38.2907 42.6559 38.0182 42.4593 37.8217Z" fill="white"></path></g><defs><clipPath id="clip0"><rect width="48" height="48" fill="white" transform="translate(15.9961 15.9998)"></rect></clipPath></defs></svg>